<?xml version="1.0" encoding="UTF-8" standalone="no"?>
<!-- Created with Inkscape (http://www.inkscape.org/) -->

<svg
   xmlns:dc="http://purl.org/dc/elements/1.1/"
   xmlns:cc="http://creativecommons.org/ns#"
   xmlns:rdf="http://www.w3.org/1999/02/22-rdf-syntax-ns#"
   xmlns:svg="http://www.w3.org/2000/svg"
   xmlns="http://www.w3.org/2000/svg"
   xmlns:sodipodi="http://sodipodi.sourceforge.net/DTD/sodipodi-0.dtd"
   xmlns:inkscape="http://www.inkscape.org/namespaces/inkscape"
   id="svg2985"
   version="1.1"
   inkscape:version="0.48.3.1 r9886"
   width="960"
   height="640"
   sodipodi:docname="dreamland.svg">
  <metadata
     id="metadata2991">
    <rdf:RDF>
      <cc:Work
         rdf:about="">
        <dc:format>image/svg+xml</dc:format>
        <dc:type
           rdf:resource="http://purl.org/dc/dcmitype/StillImage" />
        <dc:title></dc:title>
      </cc:Work>
    </rdf:RDF>
  </metadata>
  <defs
     id="defs2989" />
  <sodipodi:namedview
     pagecolor="#ffffff"
     bordercolor="#666666"
     borderopacity="1"
     objecttolerance="10"
     gridtolerance="10"
     guidetolerance="10"
     inkscape:pageopacity="0"
     inkscape:pageshadow="2"
     inkscape:window-width="1920"
     inkscape:window-height="1004"
     id="namedview2987"
     showgrid="false"
     showguides="true"
     inkscape:guide-bbox="true"
     inkscape:zoom="7.9030447"
     inkscape:cx="470.81541"
     inkscape:cy="400.27914"
     inkscape:window-x="0"
     inkscape:window-y="24"
     inkscape:window-maximized="1"
     inkscape:current-layer="svg2985" />
  <path
     style="fill:none;stroke:#000000;stroke-width:1px;stroke-linecap:butt;stroke-linejoin:miter;stroke-opacity:1"
     d="m 387.63411,492.76249 c 0,0 -0.72105,0.72105 -0.14421,0.28842 0.57684,-0.43263 -0.14421,-2.73997 -0.14421,-3.74944 0,-1.00946 -5.62416,-5.47994 -6.3452,-6.05678 -0.72105,-0.57684 -7.21046,-0.57684 -9.37359,-0.57684 -2.16314,0 -7.7873,4.47049 -8.50834,5.62416 -0.72105,1.15367 -6.20099,3.89364 -11.68094,5.76836 -5.47995,1.87472 -6.63362,13.98829 -6.63362,13.98829 0,0 -0.14421,13.69986 8.07571,18.60297 8.21992,4.90311 9.95043,12.5462 9.95043,12.5462"
     id="path3777"
     inkscape:connector-curvature="0" />
  <path
     style="fill:none;stroke:#000000;stroke-width:1px;stroke-linecap:butt;stroke-linejoin:miter;stroke-opacity:1"
     d="m 382.58679,501.12662 c 0,0 -0.72105,-5.33574 0,-5.47995 0.72104,-0.14421 5.33574,-3.46102 7.06625,-3.02839 1.73051,0.43263 8.21992,6.20099 9.08517,6.20099 0.86526,0 8.3841,2.86211 9.66201,4.03786 0.70278,0.6466 8.13276,5.93088 10.81569,10.95989 0.54303,1.01788 20.76611,2.16314 22.06399,3.31681 1.29788,1.15367 6.48941,-3.1726 10.38306,-3.60523 3.89364,-0.43262 10.38305,-0.86525 12.25777,0.43263 1.87472,1.29788 8.65255,1.73051 13.26724,0 4.61469,-1.73051 14.56512,-1.87472 16.29563,-1.5863 1.73051,0.28842 11.24831,-6.63362 19.46823,-6.48941 8.21992,0.14421 -1.00946,-14.2767 -1.00946,-14.2767 0,0 -5.54644,-22.79467 -3.60523,-32.73547 1.74597,-8.94097 1.20704,-9.95043 1.29788,-9.95043 l 0,0 c 0,0 -0.57683,-11.24831 0,-15.863 0.57684,-4.6147 -1.87472,-9.08518 -1.87472,-9.08518"
     id="path3779"
     inkscape:connector-curvature="0"
     sodipodi:nodetypes="cssssssssssscsccsc" />
  <path
     style="fill:none;stroke:#000000;stroke-width:1px;stroke-linecap:butt;stroke-linejoin:miter;stroke-opacity:1"
     d="m 333.12306,510.64442 c 0.57684,-4.7589 8.07571,-14.13249 8.94097,-14.85354 0.86525,-0.72104 1.73051,-6.92204 1.73051,-6.92204 0,0 8.36413,-6.3452 11.68094,-7.9315 3.3168,-1.5863 2.01892,-4.61469 2.01892,-4.61469 l 7.35467,-5.91257 1.29788,-7.64309 1.73051,-1.29788 c 0,0 -2.30735,-21.34295 -2.88418,-25.09238 -0.57684,-3.74944 -8.21992,-18.74719 -8.21992,-20.91033 0,-2.16313 -3.46102,-6.3452 3.46102,-26.9671 6.92203,-20.62191 2.88418,-19.90086 2.88418,-19.90086 0,0 0.86525,-7.21046 2.16314,-7.21046 1.29788,0 1.29788,0 1.29788,0 l 1.29788,-8.79675 c 0,0 0.43263,-3.89365 6.92204,-9.66201 6.48941,-5.76837 -1.00947,-12.25778 -1.00947,-12.25778 l -3.46102,-2.16313 10.9599,-0.57684 c 0,0 8.07571,-11.24831 15.863,-14.85354 7.78729,-3.60523 25.52501,-11.24831 31.00496,-12.25777"
     id="path3878"
     inkscape:connector-curvature="0" />
  <path
     style="fill:none;stroke:#000000;stroke-width:1px;stroke-linecap:butt;stroke-linejoin:miter;stroke-opacity:1"
     d="m 333.12306,510.356 c 0,0 -2.16313,11.68094 -0.72104,15.7188 0,0 5.76836,17.30509 13.41144,16.29563 7.64309,-1.00947 7.7873,0.57683 9.08518,-0.28842 1.29788,-0.86526 8.79675,-1.73051 8.21992,-2.59577 0,0 2.01893,2.30735 3.74944,2.59577 1.7305,0.28842 4.90311,-0.72105 4.90311,-0.72105 0,0 1.00946,-2.88418 0.1442,-3.46102 -0.86525,-0.57683 1.00947,-2.16313 1.00947,-2.16313 l 2.73997,-0.14421 2.59577,-0.86526"
     id="path3880"
     inkscape:connector-curvature="0" />
  <path
     style="fill:none;stroke:#000000;stroke-width:1px;stroke-linecap:butt;stroke-linejoin:miter;stroke-opacity:1"
     d="m 429.59896,299.9549 c 0,0 3.46102,-28.26499 11.68094,-44.2722 0,0 2.01893,-0.57684 1.5863,-4.61469 -0.43263,-4.03786 2.16314,-13.26724 2.73997,-14.99775 0.57684,-1.73051 3.89365,-12.97882 3.89365,-14.13249 0,-1.15368 8.79676,-11.1041 9.66201,-11.68094 0.86526,-0.57684 9.80622,-15.14196 13.69987,-18.02614 0,0 18.02614,-13.55566 28.84182,-8.94097 0,0 5.33574,0 14.42091,6.92204 0,0 13.98829,8.94097 10.81569,27.39974 0,0 -0.57684,8.65254 -2.01893,11.53672 -1.44209,2.88419 -3.31681,7.06625 -4.90311,10.81569 -1.33561,3.1569 -1.5863,5.47995 -2.30735,6.05678"
     id="path3882"
     inkscape:connector-curvature="0"
     sodipodi:nodetypes="ccssssccccssc" />
  <path
     style="fill:none;stroke:#000000;stroke-width:1px;stroke-linecap:butt;stroke-linejoin:miter;stroke-opacity:1"
     d="m 445.46196,253.95219 c 0,0 0.57684,4.03786 6.63362,9.22939 6.05679,5.19152 11.53673,5.91257 13.84408,6.77782 2.30734,0.86526 7.49887,4.32628 9.95043,7.06625 2.45155,2.73997 15.14196,3.60523 17.16088,2.88418 2.01893,-0.72104 9.3736,-6.48941 9.3736,-6.48941 l 4.32627,-5.04732"
     id="path3884"
     inkscape:connector-curvature="0"
     sodipodi:nodetypes="csssscc" />
  <path
     style="fill:none;stroke:#000000;stroke-width:1px;stroke-linecap:butt;stroke-linejoin:miter;stroke-opacity:1"
     d="m 428.5895,295.05179 c 0,0 -1.15368,-7.06625 -2.01893,-15.43038 -0.86525,-8.36412 -2.30735,-40.37855 -0.72105,-47.15638 1.5863,-6.77783 20.4777,-40.66697 28.69762,-44.2722 8.21992,-3.60522 5.76836,-0.57683 19.61244,-11.96935 0,0 5.76836,-5.04732 16.00721,0 0,0 6.20099,-10.9599 17.4493,-7.9315 11.24832,3.02839 18.74719,8.94096 40.95539,30.42812 22.20821,21.48716 41.53223,25.66922 46.72376,26.39027 5.19153,0.72104 39.22488,3.89364 41.24381,5.47994 2.01892,1.58631 18.60297,0.28842 18.60297,0.28842 0,0 -20.04507,2.59577 -24.08292,1.44209 -4.03786,-1.15367 -20.18928,-2.45155 -42.10906,-4.32627 -21.91979,-1.87472 15.57458,5.33574 15.57458,5.33574 0,0 29.13024,3.46102 34.32177,2.73997 5.19153,-0.72104 23.50609,-1.73051 23.50609,-1.73051 l -19.32402,4.90311 c 0,0 -0.28842,1.15367 5.19152,1.29788 5.47995,0.14421 -9.66201,2.16314 -9.66201,2.16314 0,0 -33.60072,-0.57684 -35.18702,4.61469 -1.5863,5.19153 25.52501,4.61469 25.52501,4.61469 l 8.65255,-1.87471 c -4.62664,2.14295 -9.45512,4.75684 -12.97882,4.32627 0.26434,2.64344 -16.62332,-0.68113 -17.59351,-0.86525 -1.2022,-0.22815 -15.57459,-6.92204 -21.48716,-6.05679 -5.91258,0.86526 -22.64083,-9.08517 -22.64083,-9.08517 l 19.75665,12.83461 c 0,0 3.22791,2.51541 10.81568,1.5863 7.06624,-0.86525 10.95989,5.62415 10.95989,5.62415 l 10.52727,-1.87471 c 0,0 -5.33574,2.59576 -1.15368,3.74943 4.18207,1.15368 10.9599,2.16314 12.5462,6.3452 1.5863,4.18207 5.33574,5.04732 9.66201,5.19153 4.32627,0.14421 12.11356,0.72105 12.11356,0.72105 l -14.42091,2.30734 c 0,0 -15.863,-3.46101 -17.59351,-4.90311 -1.73051,-1.44209 -11.24831,-8.21992 -23.36188,-3.1726 -12.11356,5.04732 -22.92925,0 -22.92925,0 0,0 -8.2483,-5.84704 -10.23884,-8.65254 -2.14074,-3.0172 3.54588,9.84865 11.53673,13.84407 0,0 8.21992,2.30735 15.14195,2.45156 0,0 13.98829,-4.7589 21.91979,0.72104 7.9315,5.47995 7.78729,12.40199 17.16088,17.88193 9.3736,5.47995 -9.5178,-3.02839 -9.5178,-3.02839 0,0 -13.98828,-10.67147 -26.10185,-8.21992 0,0 20.18928,6.63362 28.84183,12.25778 8.65254,5.62415 15.28616,9.22938 17.88193,9.08517 2.59576,-0.14421 26.24606,4.32627 34.8986,8.21992 8.65255,3.89365 26.10185,6.77783 29.41866,6.20099 3.31681,-0.57683 13.26724,11.1041 16.00721,10.67148 2.73998,-0.43263 -45.42587,-12.25778 -51.77107,-10.52727 -6.3452,1.73051 -24.51555,-1.44209 -27.68815,-3.74944 -3.1726,-2.30734 -13.41145,-11.82514 -30.86075,-15.71879 -17.4493,-3.89365 -36.05228,-4.61469 -38.50383,-7.78729 -2.45156,-3.1726 -18.74719,-12.97882 -19.75665,-12.83461 -1.00947,0.14421 -2.30735,9.37359 8.79675,17.01667 11.1041,7.64309 38.35963,13.98829 41.0996,19.90086 2.73997,5.91258 -1.5863,9.22938 10.67148,21.77558 12.25777,12.54619 36.77332,8.94096 36.77332,8.94096 0,0 29.70708,5.91258 46.72375,1.73051 17.01668,-4.18206 26.8229,-7.64308 26.8229,-7.64308 0,0 -21.34295,10.95989 -23.07346,11.53673 -1.73051,0.57684 -48.74268,7.78729 -66.19198,2.30734 -17.44931,-5.47994 -39.65751,-17.88193 -44.41641,-20.76611 -4.7589,-2.88418 -8.50834,-0.57683 2.16314,9.95043 10.67147,10.52727 24.37134,20.33349 31.726,20.76611 7.35467,0.43263 19.46823,1.15368 25.38081,-1.00946 5.91257,-2.16314 10.67147,-4.47048 10.67147,-4.47048 l -14.13249,10.81568 c 0,0 -2.88419,4.18207 12.11356,2.73997 14.99775,-1.44209 32.73547,-5.47994 34.17756,-8.65254 1.4421,-3.1726 2.73998,-3.89365 2.73998,-3.89365 0,0 -3.89365,9.66201 -4.7589,10.52727 -0.86526,0.86525 -4.18207,5.47994 -39.65751,8.50833 -35.47544,3.0284 -32.01443,-1.29788 -32.01443,-1.29788"
     id="path3886"
     inkscape:connector-curvature="0"
     sodipodi:nodetypes="csssccsssscsscsccscscccssccsccsssccsscscc" />
  <path
     style="fill:none;stroke:#000000;stroke-width:0.97681826px;stroke-linecap:butt;stroke-linejoin:miter;stroke-opacity:1"
     d="m 525.84806,333.41142 c 9.08164,5.19152 21.19049,11.53673 21.19049,11.53673 0,0 14.58566,5.91257 17.20007,11.53672 2.61442,5.62416 9.08164,17.44931 7.98083,30.57234"
     id="path3888"
     inkscape:connector-curvature="0"
     sodipodi:nodetypes="ccsc" />
  <path
     style="fill:none;stroke:#000000;stroke-width:1px;stroke-linecap:butt;stroke-linejoin:miter;stroke-opacity:1"
     d="m 494.34886,280.05404 c 0,0 -2.01893,5.76837 -5.91258,10.67148 -3.89364,4.90311 -10.95989,11.96935 -17.30509,17.30509 -6.3452,5.33574 -7.78729,5.76837 -21.91979,26.96711 -14.13249,21.19874 -11.53673,16.87246 -11.53673,16.87246 0,0 -10.67147,9.3736 -24.65976,32.15864 0,0 -16.29563,25.66922 -20.6219,34.17756 -4.32627,8.50833 -5.62416,9.66201 -5.33574,11.96935 0.28842,2.30735 -9.5178,19.46823 -10.67147,20.4777 -1.15368,1.00946 -2.73998,-2.01893 -4.18207,-7.49888 -1.44209,-5.47994 -6.92203,-18.17034 -6.63362,-26.53447 0.28842,-8.36413 -1.29788,-24.08293 1.73051,-26.24606 3.02839,-2.16314 5.76837,-3.1726 5.76837,-3.1726 0,0 -2.01893,-10.23885 -0.43263,-12.25778 1.5863,-2.01893 5.33574,-7.49887 6.92204,-8.65255 1.5863,-1.15367 8.07571,-24.51555 24.51555,-38.21541 0,0 16.00721,-14.2767 19.17981,-16.00721 0,0 3.1726,-8.21992 6.3452,-12.11357"
     id="path3916"
     inkscape:connector-curvature="0" />
  <path
     style="fill:none;stroke:#000000;stroke-width:1px;stroke-linecap:butt;stroke-linejoin:miter;stroke-opacity:1"
     d="m 375.52054,450.94185 c 0,0 6.63362,28.69761 10.52727,34.75439 3.89364,6.05679 4.03785,4.7589 4.47048,7.35467"
     id="path3918"
     inkscape:connector-curvature="0" />
  <path
     style="fill:none;stroke:#000000;stroke-width:1px;stroke-linecap:butt;stroke-linejoin:miter;stroke-opacity:1"
     d="m 387.20148,431.76203 c 0,0 1.5863,0.28842 2.88418,-1.29788 1.29789,-1.5863 2.73998,-3.89364 11.82515,-7.64308 9.08518,-3.74944 27.39973,-14.56512 32.73547,-22.064 5.33574,-7.49887 20.04507,-19.0356 20.04507,-19.0356 l -0.86526,-44.41641 c 0,0 1.73051,-10.67147 18.31456,-0.57683 16.58405,10.09463 11.96936,10.38305 18.8914,8.94096"
     id="path3920"
     inkscape:connector-curvature="0" />
  <path
     style="fill:none;stroke:#000000;stroke-width:1px;stroke-linecap:butt;stroke-linejoin:miter;stroke-opacity:1"
     d="m 419.36011,514.24965 c 0,0 -7.21045,2.45155 -8.50833,14.99775 -1.29789,12.54619 0.14421,46.43533 -2.30735,50.90582 -2.45155,4.47048 -5.04732,4.18206 -6.3452,-3.31681 -1.29788,-7.49888 -1.44209,-19.17982 -1.15367,-20.18928 0.28841,-1.00946 0.28841,-1.00946 0.28841,-1.00946"
     id="path3922"
     inkscape:connector-curvature="0" />
  <path
     style="fill:none;stroke:#000000;stroke-width:1px;stroke-linecap:butt;stroke-linejoin:miter;stroke-opacity:1"
     d="m 403.3529,581.88373 c 0,0 -0.28842,2.88418 2.73998,7.64308 3.02839,4.7589 4.32627,3.46102 11.68093,1.44209 7.35467,-2.01893 13.55566,-3.60523 25.38081,-5.33574 11.82515,-1.73051 37.49437,-9.22938 54.65525,-9.08517 17.16089,0.14421 41.24381,-12.83461 41.24381,-12.83461 0,0 43.40695,-17.16089 44.70483,-27.39974 1.29788,-10.23884 1.5863,-52.92474 1.15367,-58.98152 -0.43263,-6.05679 -1.87472,-46.43534 -3.1726,-51.62687 -1.29788,-5.19153 -4.7589,-28.69761 -8.07571,-30.86075 -3.31681,-2.16314 -1.44209,-7.9315 -1.44209,-7.9315"
     id="path3924"
     inkscape:connector-curvature="0" />
  <path
     style="fill:none;stroke:#000000;stroke-width:1px;stroke-linecap:butt;stroke-linejoin:miter;stroke-opacity:1"
     d="m 370.47322,541.79359 c 0,0 0.57684,6.92204 -5.04732,27.97657 -5.62415,21.05453 -5.62415,24.51555 -5.76836,27.25552 -0.14421,2.73998 -2.30735,7.7873 -2.30735,7.7873 l -11.53673,8.65254 c 0,0 -2.73997,1.5863 -0.43262,2.16314 2.30734,0.57684 -0.57684,0.14421 11.96935,0.14421 12.5462,0 16.58405,0.57683 17.59352,3.31681 1.00946,2.73997 3.31681,3.74943 4.90311,2.45155 1.5863,-1.29788 4.47048,-12.54619 7.49887,-18.02614 3.02839,-5.47994 3.02839,-5.47994 3.02839,-5.47994"
     id="path3926"
     inkscape:connector-curvature="0" />
  <path
     style="fill:none;stroke:#000000;stroke-width:1px;stroke-linecap:butt;stroke-linejoin:miter;stroke-opacity:1"
     d="m 398.16137,555.78188 c 0,1.15367 -0.14421,20.6219 1.15368,28.26498 1.29788,7.64309 0.86525,12.6904 0.14421,16.00721 -0.72105,3.31681 -7.35467,12.97882 -5.33574,23.50609 2.01893,10.52727 2.88418,16.58405 6.63362,17.01668 3.74944,0.43262 5.19153,0.28841 5.19153,0.28841 0,0 20.6219,2.45156 23.50608,4.90311 2.88418,2.45156 70.37405,8.36413 88.11177,-1.5863 17.73772,-9.95042 28.55341,-18.17034 31.14917,-18.89139 2.59577,-0.72105 6.48941,-10.38306 6.48941,-10.38306 0,0 4.61469,-3.89364 -9.37359,-21.34295 0,0 -3.1726,-13.98828 -4.47048,-30.71654"
     id="path3928"
     inkscape:connector-curvature="0" />
  <path
     style="fill:none;stroke:#000000;stroke-width:1px;stroke-linecap:butt;stroke-linejoin:miter;stroke-opacity:1"
     d="m 389.0762,553.18611 c 0,0 -0.72105,16.58405 2.30735,37.63858 0,0 0.1442,14.85354 0.72104,27.97657 0.57684,13.12303 -1.00946,13.84407 -1.00946,15.57458 0,1.73051 -4.47049,6.201 2.73997,9.66202 7.21046,3.46101 12.11357,1.44209 17.88193,1.15367 5.76837,-0.28842 15.71879,-0.72105 17.73772,0.43263"
     id="path3932"
     inkscape:connector-curvature="0" />
  <path
     style="fill:none;stroke:#000000;stroke-width:0.6;stroke-linecap:butt;stroke-linejoin:miter;stroke-opacity:1;stroke-miterlimit:4;stroke-dasharray:none"
     d="m 468.60393,245.11534 c -0.54816,-1.47485 1.33123,-3.55304 3.13231,-3.68713 1.80108,-0.13407 7.83079,-1.20669 9.24033,-0.40222 1.40954,0.80446 2.34924,2.01115 3.054,2.01115 0.70478,0 3.05402,-0.13408 3.99371,1.27373 0.93969,1.40781 3.44555,6.56978 3.60216,7.77647"
     id="path3949"
     inkscape:connector-curvature="0" />
  <path
     style="fill:none;stroke:#000000;stroke-width:1px;stroke-linecap:butt;stroke-linejoin:miter;stroke-opacity:1"
     d="m 468.0923,203.83816 c 0,0 6.3861,-5.4738 15.17734,-2.57103 8.79125,2.90277 8.4595,8.12776 8.4595,8.12776 0,0 -13.02099,-13.26981 -23.63684,-5.55673 z"
     id="path3007"
     inkscape:connector-curvature="0" />
  <path
     style="fill:none;stroke:#000000;stroke-width:1px;stroke-linecap:butt;stroke-linejoin:miter;stroke-opacity:1"
     d="m 521.25505,234.63829 c 0,0 1.66269,-8.245 -5.16009,-14.50294 -6.8228,-6.25791 -11.22196,-3.41926 -11.22196,-3.41926 0,0 17.93592,4.89249 16.38205,17.9222 z"
     id="path3007-5"
     inkscape:connector-curvature="0" />
  <path
     style="fill:none;stroke:#000000;stroke-width:1px;stroke-linecap:butt;stroke-linejoin:miter;stroke-opacity:1"
     d="m 466.84826,213.5417 c 0,0 4.56149,-3.23451 10.03529,-0.66349 5.47379,2.57103 6.22022,5.88848 6.22022,5.88848 0,0 -8.87418,4.06388 -16.25551,-5.22499 z"
     id="path3027"
     inkscape:connector-curvature="0" />
  <path
     style="fill:none;stroke:#000000;stroke-width:1px;stroke-linecap:butt;stroke-linejoin:miter;stroke-opacity:1"
     d="m 515.55665,237.09492 c 0,0 -0.45428,-5.57339 -5.94229,-8.11395 -5.48802,-2.54054 -8.50911,-0.9799 -8.50911,-0.9799 0,0 2.59109,9.41022 14.4514,9.09387 z"
     id="path3027-3"
     inkscape:connector-curvature="0" />
  <path
     style="fill:none;stroke:#000000;stroke-width:0.6;stroke-linecap:butt;stroke-linejoin:miter;stroke-opacity:1;opacity:0.96999999999999997;stroke-miterlimit:4;stroke-dasharray:none"
     d="m 468.42706,248.75838 c 0,0 1.1388,4.42867 7.08588,6.45321 5.94707,2.02454 6.57974,3.4164 6.57974,3.4164 l 0,0 0,0"
     id="path3109"
     inkscape:connector-curvature="0" />
</svg>
